<svg width="16" height="15" viewBox="0 0 16 15" fill="none" xmlns="http://www.w3.org/2000/svg">
<path d="M15.5234 8.55859L9.89844 14.1836C9.6875 14.3945 9.40625 14.5 9.125 14.5C8.80859 14.5 8.52734 14.3945 8.31641 14.1836C7.85938 13.7617 7.85938 13.0234 8.31641 12.6016L12.0078 8.875H1.25C0.617188 8.875 0.125 8.38281 0.125 7.75C0.125 7.15234 0.617188 6.625 1.25 6.625H12.0078L8.31641 2.93359C7.85938 2.51172 7.85938 1.77344 8.31641 1.35156C8.73828 0.894531 9.47656 0.894531 9.89844 1.35156L15.5234 6.97656C15.9805 7.39844 15.9805 8.13672 15.5234 8.55859Z" fill="white"/>
</svg>
