<svg width="70" height="80" viewBox="0 0 70 80" fill="none" xmlns="http://www.w3.org/2000/svg">
<g style="mix-blend-mode:plus-darker">
<path d="M0.482178 3.88203L0.482178 12.5894L9.34784 12.5894V3.88203L0.482178 3.88203Z" fill="#EBF3FE"/>
<path d="M33.3322 3.96109V12.5101L42.1978 12.5101V3.96109L33.3322 3.96109Z" fill="#EBF3FE"/>
<path fill-rule="evenodd" clip-rule="evenodd" d="M139.691 17.7332C140.218 19.8441 140.482 22.1661 140.482 24.6991C140.482 27.1266 140.218 29.3958 139.691 31.5067C139.268 33.7231 138.582 35.7284 137.633 37.5226C136.683 39.4224 135.522 41.0583 134.15 42.4304C132.883 43.908 131.405 45.1218 129.717 46.0717C128.028 47.1271 126.181 47.9187 124.176 48.4464C123.437 48.6575 122.698 48.8158 121.959 48.9213C121.484 65.7027 107.711 79.1595 90.7712 79.1595H49.0059C32.2245 79.1595 18.451 65.861 17.8178 49.2379C17.7122 49.2379 17.6595 49.2379 17.6595 49.2379C15.0209 49.2379 12.6462 48.7102 10.5353 47.6548C9.47987 47.2326 8.52997 46.6522 7.68563 45.9133C6.73573 45.1745 5.89138 44.3302 5.15257 43.3803C3.67497 41.4805 2.56677 39.2113 1.82797 36.5727C0.983623 33.8286 0.561444 30.7678 0.561444 27.3905V21.3745H9.26878V27.3905C9.26878 32.0344 10.2714 35.5701 12.2768 37.9976C12.91 38.8419 13.7544 39.528 14.8098 40.0557C15.1264 40.2668 15.4431 40.4251 15.7597 40.5306C16.9207 40.9528 18.24 41.2694 19.7176 41.4805C20.2453 41.4805 20.7202 41.4805 21.1424 41.4805H21.459C21.9868 41.4805 22.4617 41.4805 22.8839 41.4805C24.3615 41.2694 25.7335 40.9528 27.0001 40.5306C27.2112 40.4251 27.475 40.2668 27.7916 40.0557C28.8471 39.528 29.7442 38.8419 30.483 37.9976C32.4883 35.5701 33.491 32.0344 33.491 27.3905V21.3745H42.04V27.3905C42.04 30.7678 41.6179 33.8286 40.7735 36.5727C40.0347 39.2113 38.9265 41.4805 37.4489 43.3803C36.7101 44.3302 35.8657 45.1745 34.9158 45.9133C34.0715 46.6522 33.1744 47.2326 32.2245 47.6548C30.4302 48.4991 28.4777 48.9741 26.3668 49.0797C27.0001 61.1116 36.9739 70.6105 49.0059 70.6105H90.7712C102.961 70.6105 112.935 60.9533 113.41 48.763C112.671 48.6575 111.933 48.5519 111.194 48.4464C109.189 47.9187 107.342 47.1271 105.653 46.0717C103.964 45.1218 102.487 43.908 101.22 42.4304C99.848 41.0583 98.687 39.4224 97.7371 37.5226C96.7872 35.7284 96.1012 33.7231 95.679 31.5067C95.1513 29.3958 94.8874 27.1266 94.8874 24.6991C94.8874 22.1661 95.1513 19.8441 95.679 17.7332C96.1012 15.5168 96.7872 13.5115 97.7371 11.7173C98.687 9.92303 99.848 8.28709 101.22 6.80949C102.487 5.33188 103.964 4.11815 105.653 3.16826C107.342 2.11282 109.189 1.32125 111.194 0.793529C113.199 0.265812 115.363 0.00195312 117.685 0.00195312C120.007 0.00195312 122.17 0.265812 124.176 0.793529C126.181 1.32125 128.028 2.11282 129.717 3.16826C131.405 4.11815 132.883 5.33188 134.15 6.80949C135.522 8.28709 136.683 9.92303 137.633 11.7173C138.582 13.5115 139.268 15.5168 139.691 17.7332ZM131.933 24.6991C131.933 22.0605 131.617 19.6858 130.983 17.5749C130.244 15.5696 129.295 13.8281 128.134 12.3505C126.867 10.8729 125.389 9.76472 123.701 9.02591C121.907 8.18156 119.901 7.75939 117.685 7.75939C115.468 7.75939 113.516 8.18156 111.827 9.02591C110.033 9.76472 108.503 10.8729 107.236 12.3505C106.075 13.8281 105.125 15.5696 104.386 17.5749C103.753 19.6858 103.436 22.0605 103.436 24.6991C103.436 27.2321 103.753 29.5541 104.386 31.665C105.125 33.7759 106.075 35.5701 107.236 37.0477C108.503 38.4198 110.033 39.528 111.827 40.3723C113.516 41.1111 115.468 41.4805 117.685 41.4805C119.901 41.4805 121.907 41.1111 123.701 40.3723C125.389 39.528 126.867 38.4198 128.134 37.0477C129.295 35.5701 130.244 33.7759 130.983 31.665C131.617 29.5541 131.933 27.2321 131.933 24.6991Z" fill="#EBF3FE"/>
</g>
</svg>
