<svg width="15" height="19" viewBox="0 0 15 19" fill="none" xmlns="http://www.w3.org/2000/svg">
<g filter="url(#filter0_d_14_4857)">
<mask id="path-1-outside-1_14_4857" maskUnits="userSpaceOnUse" x="2" y="0" width="13" height="17" fill="black">
<rect fill="white" x="2" width="13" height="17"/>
<path d="M7.84375 15.4219C6.42188 13.6445 3.25 9.40625 3.25 7C3.25 4.10156 5.57422 1.75 8.5 1.75C11.3984 1.75 13.75 4.10156 13.75 7C13.75 9.40625 10.5508 13.6445 9.12891 15.4219C8.80078 15.832 8.17188 15.832 7.84375 15.4219ZM8.5 8.75C9.45703 8.75 10.25 7.98438 10.25 7C10.25 6.04297 9.45703 5.25 8.5 5.25C7.51562 5.25 6.75 6.04297 6.75 7C6.75 7.98438 7.51562 8.75 8.5 8.75Z"/>
</mask>
<path d="M7.84375 15.4219L8.62462 14.7972C7.925 13.9227 6.80556 12.4555 5.86609 10.9239C5.39619 10.1578 4.98313 9.39465 4.69027 8.695C4.39079 7.97952 4.25 7.40705 4.25 7H3.25H2.25C2.25 7.79608 2.5057 8.65574 2.84537 9.46723C3.19168 10.2946 3.66045 11.1532 4.16126 11.9696C5.16319 13.6031 6.34063 15.1438 7.06288 16.0466L7.84375 15.4219ZM3.25 7H4.25C4.25 4.65045 6.1299 2.75 8.5 2.75V1.75V0.75C5.01854 0.75 2.25 3.55268 2.25 7H3.25ZM8.5 1.75V2.75C10.8462 2.75 12.75 4.65385 12.75 7H13.75H14.75C14.75 3.54928 11.9507 0.75 8.5 0.75V1.75ZM13.75 7H12.75C12.75 7.40542 12.6085 7.97684 12.3066 8.69237C12.0114 9.39185 11.5952 10.155 11.1219 10.9212C10.1756 12.4532 9.04928 13.9206 8.34804 14.7972L9.12891 15.4219L9.90978 16.0466C10.6304 15.1458 11.8146 13.6054 12.8234 11.9723C13.3277 11.156 13.8001 10.2974 14.1492 9.46986C14.4916 8.65841 14.75 7.7977 14.75 7H13.75ZM9.12891 15.4219L8.34804 14.7972C8.42024 14.7069 8.55242 14.7069 8.62462 14.7972L7.84375 15.4219L7.06288 16.0466C7.79133 16.9571 9.18132 16.9571 9.90978 16.0466L9.12891 15.4219ZM8.5 8.75V9.75C9.9991 9.75 11.25 8.54682 11.25 7H10.25H9.25C9.25 7.42193 8.91497 7.75 8.5 7.75V8.75ZM10.25 7H11.25C11.25 5.49068 10.0093 4.25 8.5 4.25V5.25V6.25C8.90475 6.25 9.25 6.59525 9.25 7H10.25ZM8.5 5.25V4.25C6.95318 4.25 5.75 5.5009 5.75 7H6.75H7.75C7.75 6.58503 8.07807 6.25 8.5 6.25V5.25ZM6.75 7H5.75C5.75 8.53666 6.96334 9.75 8.5 9.75V8.75V7.75C8.06791 7.75 7.75 7.43209 7.75 7H6.75Z" fill="white" mask="url(#path-1-outside-1_14_4857)"/>
</g>
<defs>
<filter id="filter0_d_14_4857" x="0.25" y="0.75" width="14.5" height="17.9795" filterUnits="userSpaceOnUse" color-interpolation-filters="sRGB">
<feFlood flood-opacity="0" result="BackgroundImageFix"/>
<feColorMatrix in="SourceAlpha" type="matrix" values="0 0 0 0 0 0 0 0 0 0 0 0 0 0 0 0 0 0 127 0" result="hardAlpha"/>
<feOffset dx="-2" dy="2"/>
<feComposite in2="hardAlpha" operator="out"/>
<feColorMatrix type="matrix" values="0 0 0 0 0 0 0 0 0 0.678431 0 0 0 0 0.933333 0 0 0 1 0"/>
<feBlend mode="normal" in2="BackgroundImageFix" result="effect1_dropShadow_14_4857"/>
<feBlend mode="normal" in="SourceGraphic" in2="effect1_dropShadow_14_4857" result="shape"/>
</filter>
</defs>
</svg>
