<svg width="111" height="40" viewBox="0 0 111 40" fill="none" xmlns="http://www.w3.org/2000/svg">
<path d="M19.7314 24.0757L10.696 7.86084H5.86084V26.5177H8.54704V9.61908L17.9732 26.5177H22.4176V7.86084H19.7314V24.0757Z" fill="white"/>
<path d="M27.155 12.8916H24.4688V15.6266H27.155V12.8916Z" fill="white"/>
<path d="M37.265 12.8916H34.6277V15.6266H37.265V12.8916Z" fill="white"/>
<path d="M48.3028 26.5177L53.4798 12.1099H50.7936L46.3003 24.8571L41.8559 12.1099H39.1208L44.2002 26.5177H48.3028Z" fill="white"/>
<path d="M57.5336 26.5177V12.1099H54.8962V26.5177H57.5336Z" fill="white"/>
<path d="M57.5825 8.05615H54.8474V10.4493H57.5825V8.05615Z" fill="white"/>
<path fill-rule="evenodd" clip-rule="evenodd" d="M73.1134 17.1893C73.2762 17.8405 73.3576 18.5568 73.3576 19.3383C73.3576 20.0872 73.2762 20.7872 73.1134 21.4384C72.9832 22.1222 72.7716 22.7408 72.4785 23.2943C72.1855 23.8804 71.8273 24.3851 71.404 24.8084C71.0133 25.2642 70.5575 25.6386 70.0365 25.9317C69.5156 26.2573 68.9458 26.5015 68.3271 26.6643C68.0992 26.7294 67.8713 26.7782 67.6434 26.8108C67.4968 31.9879 63.2477 36.1393 58.0219 36.1393H39.4138C34.2368 36.1393 29.9877 32.0367 29.7923 26.9085C29.7598 26.9085 29.7435 26.9085 29.7435 26.9085C28.9295 26.9085 28.1969 26.7457 27.5457 26.4201C27.2201 26.2898 26.927 26.1108 26.6666 25.8829C26.3735 25.6549 26.113 25.3944 25.8851 25.1014C25.4293 24.5153 25.0874 23.8153 24.8595 23.0013C24.599 22.1547 24.4688 21.2105 24.4688 20.1686V18.3126H27.155V20.1686C27.155 21.6012 27.4643 22.692 28.0829 23.4408C28.2783 23.7013 28.5388 23.913 28.8644 24.0758C28.962 24.1409 29.0597 24.1897 29.1574 24.2223C29.5156 24.3525 29.9226 24.4502 30.3784 24.5153C30.5412 24.5153 30.6877 24.5153 30.818 24.5153H30.9156C31.0784 24.5153 31.225 24.5153 31.3552 24.5153C31.811 24.4502 32.2343 24.3525 32.625 24.2223C32.6902 24.1897 32.7716 24.1409 32.8692 24.0758C33.1948 23.913 33.4716 23.7013 33.6995 23.4408C34.3182 22.692 34.6275 21.6012 34.6275 20.1686V18.3126H37.2648V20.1686C37.2648 21.2105 37.1346 22.1547 36.8741 23.0013C36.6462 23.8153 36.3043 24.5153 35.8485 25.1014C35.6206 25.3944 35.3601 25.6549 35.067 25.8829C34.8066 26.1108 34.5298 26.2898 34.2368 26.4201C33.6832 26.6806 33.0809 26.8271 32.4297 26.8597C32.625 30.5715 35.702 33.5019 39.4138 33.5019H58.0219C61.7825 33.5019 64.8595 30.5226 65.006 26.762C64.7781 26.7294 64.5501 26.6968 64.3222 26.6643C63.7036 26.5015 63.1338 26.2573 62.6128 25.9317C62.0919 25.6386 61.636 25.2642 61.2453 24.8084C60.822 24.3851 60.4639 23.8804 60.1708 23.2943C59.8778 22.7408 59.6661 22.1222 59.5359 21.4384C59.3731 20.7872 59.2917 20.0872 59.2917 19.3383C59.2917 18.5568 59.3731 17.8405 59.5359 17.1893C59.6661 16.5056 59.8778 15.8869 60.1708 15.3334C60.4639 14.7799 60.822 14.2752 61.2453 13.8194C61.636 13.3635 62.0919 12.9891 62.6128 12.696C63.1338 12.3704 63.7036 12.1262 64.3222 11.9634C64.9409 11.8006 65.6083 11.7192 66.3247 11.7192C67.041 11.7192 67.7085 11.8006 68.3271 11.9634C68.9458 12.1262 69.5156 12.3704 70.0365 12.696C70.5575 12.9891 71.0133 13.3635 71.404 13.8194C71.8273 14.2752 72.1855 14.7799 72.4785 15.3334C72.7716 15.8869 72.9832 16.5056 73.1134 17.1893ZM70.7203 19.3383C70.7203 18.5243 70.6226 17.7917 70.4272 17.1405C70.1993 16.5218 69.9063 15.9846 69.5481 15.5288C69.1574 15.0729 68.7015 14.731 68.1806 14.5031C67.6271 14.2426 67.0084 14.1124 66.3247 14.1124C65.6409 14.1124 65.0385 14.2426 64.5176 14.5031C63.9641 14.731 63.4919 15.0729 63.1012 15.5288C62.7431 15.9846 62.45 16.5218 62.2221 17.1405C62.0267 17.7917 61.9291 18.5243 61.9291 19.3383C61.9291 20.1197 62.0267 20.836 62.2221 21.4872C62.45 22.1384 62.7431 22.692 63.1012 23.1478C63.4919 23.5711 63.9641 23.913 64.5176 24.1734C65.0385 24.4014 65.6409 24.5153 66.3247 24.5153C67.0084 24.5153 67.6271 24.4014 68.1806 24.1734C68.7015 23.913 69.1574 23.5711 69.5481 23.1478C69.9063 22.692 70.1993 22.1384 70.4272 21.4872C70.6226 20.836 70.7203 20.1197 70.7203 19.3383Z" fill="white"/>
<path d="M86.9353 13.5263C86.4794 12.9402 85.9259 12.5007 85.2747 12.2076C84.656 11.882 83.9234 11.7192 83.0769 11.7192C82.4257 11.7192 81.8071 11.8332 81.221 12.0611C80.6349 12.2565 80.1139 12.5495 79.6581 12.9402C79.2022 13.331 78.8115 13.8194 78.4859 14.4054C78.1603 14.959 77.9161 15.5939 77.7533 16.3102V12.11H75.116V26.5178H77.7533V18.7522C77.7533 18.0033 77.851 17.3521 78.0464 16.7986C78.2417 16.2125 78.5185 15.7241 78.8767 15.3334C79.2348 14.9427 79.6744 14.6496 80.1953 14.4543C80.7163 14.2264 81.3187 14.1124 82.0024 14.1124C83.2397 14.1124 84.1676 14.4868 84.7863 15.2357C85.3724 15.952 85.6654 17.0265 85.6654 18.4592V26.5178H88.3516V18.4592C88.3516 17.4172 88.2214 16.4893 87.9609 15.6753C87.733 14.8287 87.3911 14.1124 86.9353 13.5263Z" fill="white"/>
<path d="M99.243 19.1917L104.518 12.1099H101.539L97.3871 17.8242L93.138 12.1099H90.0123L95.3847 19.2405L89.7192 26.5177H92.6985L97.1918 20.608L101.832 26.5177H104.957L99.243 19.1917Z" fill="white"/>
</svg>
