<svg width="18" height="19" viewBox="0 0 18 19" fill="none" xmlns="http://www.w3.org/2000/svg">
<g filter="url(#filter0_d_93_3767)">
<mask id="path-1-outside-1_93_3767" maskUnits="userSpaceOnUse" x="2" y="0" width="16" height="17" fill="black">
<rect fill="white" x="2" width="16" height="17"/>
<path d="M16.9727 12.332L16.3164 15.0938C16.2344 15.5039 15.9062 15.7773 15.4961 15.7773C8.60547 15.75 3 10.1445 3 3.25391C3 2.84375 3.24609 2.51562 3.65625 2.43359L6.41797 1.77734C6.80078 1.69531 7.21094 1.91406 7.375 2.26953L8.66016 5.25C8.79688 5.60547 8.71484 6.01562 8.41406 6.23438L6.9375 7.4375C7.86719 9.32422 9.39844 10.8555 11.3125 11.7852L12.5156 10.3086C12.7344 10.0352 13.1445 9.92578 13.5 10.0625L16.4805 11.3477C16.8359 11.5391 17.0547 11.9492 16.9727 12.332Z"/>
</mask>
<path d="M16.9727 12.332L17.9456 12.5632L17.9481 12.5524L17.9505 12.5416L16.9727 12.332ZM16.3164 15.0938L15.3435 14.8626L15.3393 14.88L15.3358 14.8976L16.3164 15.0938ZM15.4961 15.7773L15.4921 16.7773H15.4961V15.7773ZM3.65625 2.43359L3.85237 3.41417L3.86997 3.41065L3.88744 3.4065L3.65625 2.43359ZM6.41797 1.77734L6.20844 0.799541L6.19758 0.801868L6.18678 0.804434L6.41797 1.77734ZM7.375 2.26953L8.29327 1.87358L8.28826 1.86196L8.28296 1.85047L7.375 2.26953ZM8.66016 5.25L9.5935 4.89102L9.58633 4.87238L9.57843 4.85405L8.66016 5.25ZM8.41406 6.23438L7.82589 5.42564L7.80368 5.44179L7.78239 5.45914L8.41406 6.23438ZM6.9375 7.4375L6.30583 6.66226L5.68853 7.16525L6.04049 7.87951L6.9375 7.4375ZM11.3125 11.7852L10.8756 12.6847L11.5877 13.0305L12.0877 12.4168L11.3125 11.7852ZM12.5156 10.3086L13.2909 10.9403L13.2965 10.9333L12.5156 10.3086ZM13.5 10.0625L13.896 9.14423L13.8776 9.13632L13.859 9.12915L13.5 10.0625ZM16.4805 11.3477L16.9546 10.4672L16.9163 10.4466L16.8764 10.4294L16.4805 11.3477ZM16.9727 12.332L15.9997 12.1008L15.3435 14.8626L16.3164 15.0938L17.2893 15.3249L17.9456 12.5632L16.9727 12.332ZM16.3164 15.0938L15.3358 14.8976C15.3374 14.8895 15.3489 14.8546 15.3891 14.8211C15.43 14.7871 15.4734 14.7773 15.4961 14.7773V15.7773V16.7773C16.3967 16.7773 17.1242 16.1538 17.297 15.2899L16.3164 15.0938ZM15.4961 15.7773L15.5001 14.7774C9.15785 14.7522 4 9.59148 4 3.25391H3H2C2 10.6976 8.05308 16.7478 15.4921 16.7773L15.4961 15.7773ZM3 3.25391H4C4 3.2505 3.9995 3.28906 3.96063 3.33852C3.94223 3.36195 3.92 3.38121 3.89717 3.39499C3.87444 3.4087 3.85753 3.41314 3.85237 3.41417L3.65625 2.43359L3.46013 1.45301C2.54795 1.63545 2 2.40326 2 3.25391H3ZM3.65625 2.43359L3.88744 3.4065L6.64916 2.75025L6.41797 1.77734L6.18678 0.804434L3.42506 1.46068L3.65625 2.43359ZM6.41797 1.77734L6.6275 2.75515C6.56755 2.76799 6.52968 2.7531 6.51716 2.74659C6.50547 2.74051 6.48431 2.726 6.46704 2.68859L7.375 2.26953L8.28296 1.85047C7.93437 1.09519 7.07481 0.61389 6.20844 0.799541L6.41797 1.77734ZM7.375 2.26953L6.45673 2.66548L7.74189 5.64595L8.66016 5.25L9.57843 4.85405L8.29327 1.87358L7.375 2.26953ZM8.66016 5.25L7.72681 5.60898C7.7262 5.60739 7.72078 5.59407 7.72775 5.56442C7.73585 5.53001 7.76323 5.47121 7.82589 5.42564L8.41406 6.23438L9.00223 7.04311C9.74282 6.50451 9.85751 5.57744 9.5935 4.89102L8.66016 5.25ZM8.41406 6.23438L7.78239 5.45914L6.30583 6.66226L6.9375 7.4375L7.56917 8.21274L9.04574 7.00961L8.41406 6.23438ZM6.9375 7.4375L6.04049 7.87951C7.06811 9.96497 8.76092 11.6575 10.8756 12.6847L11.3125 11.7852L11.7494 10.8856C10.036 10.0534 8.66627 8.68347 7.83451 6.99549L6.9375 7.4375ZM11.3125 11.7852L12.0877 12.4168L13.2909 10.9403L12.5156 10.3086L11.7404 9.67692L10.5373 11.1535L11.3125 11.7852ZM12.5156 10.3086L13.2965 10.9333C13.2565 10.9832 13.2179 10.9971 13.2035 11.0008C13.1876 11.0048 13.1666 11.0057 13.141 10.9958L13.5 10.0625L13.859 9.12915C13.12 8.84494 12.2408 9.0513 11.7348 9.6839L12.5156 10.3086ZM13.5 10.0625L13.104 10.9808L16.0845 12.2659L16.4805 11.3477L16.8764 10.4294L13.896 9.14423L13.5 10.0625ZM16.4805 11.3477L16.0064 12.2281C16.002 12.2257 16.0007 12.2242 16.0011 12.2247C16.0016 12.2252 16.0011 12.2249 15.9997 12.2223C15.9982 12.2193 15.9817 12.1841 15.9949 12.1225L16.9727 12.332L17.9505 12.5416C18.1388 11.6626 17.6436 10.8382 16.9546 10.4672L16.4805 11.3477Z" fill="white" mask="url(#path-1-outside-1_93_3767)"/>
</g>
<defs>
<filter id="filter0_d_93_3767" x="0" y="0.759651" width="17.9908" height="18.0177" filterUnits="userSpaceOnUse" color-interpolation-filters="sRGB">
<feFlood flood-opacity="0" result="BackgroundImageFix"/>
<feColorMatrix in="SourceAlpha" type="matrix" values="0 0 0 0 0 0 0 0 0 0 0 0 0 0 0 0 0 0 127 0" result="hardAlpha"/>
<feOffset dx="-2" dy="2"/>
<feComposite in2="hardAlpha" operator="out"/>
<feColorMatrix type="matrix" values="0 0 0 0 0 0 0 0 0 0.678431 0 0 0 0 0.933333 0 0 0 1 0"/>
<feBlend mode="normal" in2="BackgroundImageFix" result="effect1_dropShadow_93_3767"/>
<feBlend mode="normal" in="SourceGraphic" in2="effect1_dropShadow_93_3767" result="shape"/>
</filter>
</defs>
</svg>
