<svg width="46" height="75" viewBox="0 0 46 75" fill="none" xmlns="http://www.w3.org/2000/svg">
<g style="mix-blend-mode:plus-darker">
<path d="M45.4824 -1.11846L45.4824 7.58887L36.6168 7.58887L36.6168 -1.11846L45.4824 -1.11846Z" fill="#EBF3FE"/>
<path d="M12.6324 -1.03941L12.6324 7.5096L3.76675 7.5096L3.76675 -1.03941L12.6324 -1.03941Z" fill="#EBF3FE"/>
<path fill-rule="evenodd" clip-rule="evenodd" d="M-93.726 12.7327C-94.2537 14.8436 -94.5176 17.1655 -94.5176 19.6986C-94.5176 22.1261 -94.2537 24.3953 -93.726 26.5061C-93.3038 28.7226 -92.6178 30.7279 -91.6679 32.5221C-90.718 34.4219 -89.557 36.0578 -88.185 37.4299C-86.9184 38.9075 -85.4409 40.1213 -83.7522 41.0711C-82.0635 42.1266 -80.2165 42.9181 -78.2111 43.4459C-77.4723 43.657 -76.7335 43.8153 -75.9947 43.9208C-75.5198 60.7022 -61.7464 74.159 -44.8066 74.159L-3.04128 74.159C13.7401 74.159 27.5135 60.8605 28.1468 44.2375C28.2523 44.2375 28.3051 44.2375 28.3051 44.2375C30.9437 44.2375 33.3184 43.7097 35.4293 42.6543C36.4847 42.2321 37.4346 41.6517 38.279 40.9129C39.2289 40.1741 40.0732 39.3297 40.812 38.3798C42.2896 36.48 43.3978 34.2108 44.1366 31.5723C44.981 28.8281 45.4032 25.7674 45.4032 22.39L45.4032 16.374L36.6958 16.374L36.6958 22.39C36.6958 27.0339 35.6932 30.5696 33.6878 32.9971C33.0546 33.8414 32.2102 34.5275 31.1548 35.0552C30.8382 35.2663 30.5215 35.4246 30.2049 35.5301C29.0439 35.9523 27.7246 36.2689 26.247 36.48C25.7193 36.48 25.2444 36.48 24.8222 36.48L24.5056 36.48C23.9778 36.48 23.5029 36.48 23.0807 36.48C21.6031 36.2689 20.231 35.9523 18.9645 35.5301C18.7534 35.4246 18.4896 35.2663 18.1729 35.0552C17.1175 34.5275 16.2204 33.8414 15.4816 32.9971C13.4763 30.5696 12.4736 27.0339 12.4736 22.39L12.4736 16.374L3.92458 16.374L3.92458 22.39C3.92458 25.7673 4.34673 28.8281 5.19108 31.5722C5.92989 34.2108 7.03811 36.48 8.51571 38.3798C9.25452 39.3297 10.0989 40.1741 11.0488 40.9129C11.8931 41.6517 12.7902 42.2321 13.7401 42.6543C15.5344 43.4987 17.4869 43.9736 19.5978 44.0792C18.9645 56.1111 8.99067 65.61 -3.04128 65.61L-44.8066 65.61C-56.9969 65.61 -66.9707 55.9528 -67.4457 43.7625C-66.7069 43.657 -65.9681 43.5514 -65.2293 43.4459C-63.224 42.9182 -61.3769 42.1266 -59.6882 41.0711C-57.9996 40.1213 -56.522 38.9075 -55.2554 37.4299C-53.8834 36.0578 -52.7224 34.4219 -51.7725 32.5221C-50.8226 30.7279 -50.1366 28.7226 -49.7144 26.5062C-49.1867 24.3953 -48.9228 22.1261 -48.9228 19.6986C-48.9228 17.1656 -49.1867 14.8436 -49.7144 12.7327C-50.1366 10.5163 -50.8226 8.511 -51.7725 6.71676C-52.7224 4.92252 -53.8834 3.28659 -55.2554 1.80898C-56.522 0.331371 -57.9995 -0.882359 -59.6882 -1.83225C-61.3769 -2.88768 -63.2239 -3.67926 -65.2293 -4.20698C-67.2346 -4.7347 -69.3982 -4.99856 -71.7202 -4.99856C-74.0422 -4.99856 -76.2058 -4.7347 -78.2111 -4.20698C-80.2165 -3.67926 -82.0635 -2.88769 -83.7522 -1.83225C-85.4409 -0.882364 -86.9184 0.331366 -88.185 1.80897C-89.557 3.28658 -90.718 4.92251 -91.6679 6.71675C-92.6178 8.51099 -93.3038 10.5163 -93.726 12.7327ZM-85.9686 19.6986C-85.9686 17.06 -85.6519 14.6853 -85.0187 12.5744C-84.2799 10.5691 -83.33 8.82761 -82.169 7.35001C-80.9025 5.8724 -79.4249 4.76421 -77.7362 4.0254C-75.9419 3.18105 -73.9366 2.75888 -71.7202 2.75888C-69.5038 2.75888 -67.5512 3.18106 -65.8625 4.0254C-64.0683 4.76421 -62.5379 5.8724 -61.2714 7.35001C-60.1104 8.82762 -59.1606 10.5691 -58.4217 12.5744C-57.7885 14.6853 -57.4718 17.06 -57.4718 19.6986C-57.4718 22.2316 -57.7885 24.5536 -58.4218 26.6645C-59.1606 28.7753 -60.1104 30.5696 -61.2714 32.0472C-62.5379 33.4192 -64.0683 34.5275 -65.8625 35.3718C-67.5512 36.1106 -69.5038 36.48 -71.7202 36.48C-73.9366 36.48 -75.9419 36.1106 -77.7362 35.3718C-79.4249 34.5275 -80.9025 33.4192 -82.169 32.0472C-83.33 30.5696 -84.2799 28.7753 -85.0187 26.6645C-85.6519 24.5536 -85.9686 22.2316 -85.9686 19.6986Z" fill="#EBF3FE"/>
</g>
</svg>
