<svg width="76" height="80" viewBox="0 0 76 80" fill="none" xmlns="http://www.w3.org/2000/svg">
<g style="mix-blend-mode:plus-darker">
<path d="M140.482 75.2793L140.482 66.572L131.617 66.572L131.617 75.2793L140.482 75.2793Z" fill="#EBF3FE"/>
<path d="M107.632 75.2003L107.632 66.6513L98.7668 66.6513L98.7668 75.2003L107.632 75.2003Z" fill="#EBF3FE"/>
<path fill-rule="evenodd" clip-rule="evenodd" d="M1.27402 61.4281C0.746294 59.3173 0.482424 56.9953 0.482424 54.4623C0.482424 52.0348 0.746295 49.7656 1.27402 47.6547C1.69619 45.4383 2.38219 43.433 3.33208 41.6387C4.28197 39.7389 5.44298 38.103 6.81505 36.731C8.08156 35.2534 9.55915 34.0396 11.2478 33.0897C12.9365 32.0343 14.7836 31.2427 16.7889 30.715C17.5277 30.5039 18.2665 30.3456 19.0053 30.24C19.4802 13.4586 33.2537 0.00183694 50.1934 0.00183842L91.9587 0.00184207C108.74 0.00184354 122.514 13.3003 123.147 29.9234C123.252 29.9234 123.305 29.9234 123.305 29.9234C125.944 29.9234 128.318 30.4511 130.429 31.5066C131.485 31.9288 132.435 32.5092 133.279 33.248C134.229 33.9868 135.073 34.8312 135.812 35.7811C137.29 37.6809 138.398 39.9501 139.137 42.5886C139.981 45.3328 140.403 48.3935 140.403 51.7709L140.403 57.7869L131.696 57.7869L131.696 51.7709C131.696 47.127 130.693 43.5913 128.688 41.1638C128.055 40.3194 127.21 39.6334 126.155 39.1057C125.838 38.8946 125.522 38.7363 125.205 38.6308C124.044 38.2086 122.725 37.8919 121.247 37.6809C120.719 37.6809 120.244 37.6809 119.822 37.6809L119.506 37.6809C118.978 37.6809 118.503 37.6809 118.081 37.6809C116.603 37.8919 115.231 38.2086 113.965 38.6308C113.753 38.7363 113.49 38.8946 113.173 39.1057C112.118 39.6334 111.22 40.3194 110.482 41.1638C108.476 43.5913 107.474 47.127 107.474 51.7709L107.474 57.7869L98.9246 57.7869L98.9246 51.7709C98.9246 48.3935 99.3467 45.3328 100.191 42.5886C100.93 39.95 102.038 37.6809 103.516 35.7811C104.255 34.8312 105.099 33.9868 106.049 33.248C106.893 32.5092 107.79 31.9288 108.74 31.5066C110.534 30.6622 112.487 30.1873 114.598 30.0817C113.965 18.0498 103.991 8.55088 91.9587 8.55088L50.1934 8.55087C38.0031 8.55087 28.0293 18.2081 27.5543 30.3984C28.2931 30.5039 29.0319 30.6094 29.7707 30.715C31.7761 31.2427 33.6231 32.0343 35.3118 33.0897C37.0005 34.0396 38.478 35.2534 39.7446 36.731C41.1166 38.103 42.2776 39.7389 43.2275 41.6387C44.1774 43.433 44.8634 45.4383 45.2856 47.6547C45.8133 49.7656 46.0772 52.0348 46.0772 54.4623C46.0772 56.9953 45.8133 59.3173 45.2856 61.4281C44.8634 63.6445 44.1774 65.6499 43.2275 67.4441C42.2776 69.2383 41.1166 70.8743 39.7446 72.3519C38.478 73.8295 37.0005 75.0432 35.3118 75.9931C33.6231 77.0485 31.7761 77.8401 29.7707 78.3678C27.7654 78.8956 25.6018 79.1594 23.2798 79.1594C20.9578 79.1594 18.7942 78.8956 16.7889 78.3678C14.7835 77.8401 12.9365 77.0485 11.2478 75.9931C9.55914 75.0432 8.08156 73.8295 6.81505 72.3519C5.44298 70.8743 4.28197 69.2383 3.33208 67.4441C2.38219 65.6499 1.69618 63.6445 1.27402 61.4281ZM9.03144 54.4623C9.03144 57.1008 9.34807 59.4756 9.98134 61.5864C10.7201 63.5918 11.67 65.3332 12.831 66.8108C14.0975 68.2885 15.5751 69.3966 17.2638 70.1355C19.0581 70.9798 21.0634 71.402 23.2798 71.402C25.4962 71.402 27.4488 70.9798 29.1375 70.1355C30.9317 69.3967 32.4621 68.2885 33.7286 66.8109C34.8896 65.3332 35.8395 63.5918 36.5783 61.5864C37.2115 59.4756 37.5282 57.1008 37.5282 54.4623C37.5282 51.9292 37.2115 49.6073 36.5783 47.4964C35.8395 45.3855 34.8896 43.5913 33.7286 42.1137C32.4621 40.7416 30.9317 39.6334 29.1375 38.789C27.4488 38.0502 25.4962 37.6808 23.2798 37.6808C21.0634 37.6808 19.0581 38.0502 17.2638 38.789C15.5751 39.6334 14.0975 40.7416 12.831 42.1137C11.67 43.5913 10.7201 45.3855 9.98134 47.4964C9.34807 49.6072 9.03144 51.9292 9.03144 54.4623Z" fill="#EBF3FE"/>
</g>
</svg>
