<svg width="31" height="18" viewBox="0 0 31 18" fill="none" xmlns="http://www.w3.org/2000/svg">
<path d="M0.449707 1.30335L0.449707 3.18066L2.36116 3.18066L2.36116 1.30335L0.449707 1.30335Z" fill="white"/>
<path d="M7.53223 1.32039L7.53223 3.16357L9.44368 3.16357L9.44368 1.32039L7.53223 1.32039Z" fill="white"/>
<path fill-rule="evenodd" clip-rule="evenodd" d="M30.4633 4.28969C30.5771 4.7448 30.6339 5.24542 30.6339 5.79155C30.6339 6.31492 30.5771 6.80416 30.4633 7.25927C30.3723 7.73713 30.2244 8.16948 30.0196 8.55632C29.8148 8.96592 29.5644 9.31862 29.2686 9.61444C28.9956 9.93302 28.677 10.1947 28.3129 10.3995C27.9488 10.6271 27.5506 10.7977 27.1183 10.9115C26.959 10.957 26.7997 10.9911 26.6404 11.0139C26.538 14.632 23.5684 17.5333 19.9162 17.5333H10.9115C7.2934 17.5333 4.32383 14.6661 4.18729 11.0822C4.16454 11.0822 4.15316 11.0822 4.15316 11.0822C3.58428 11.0822 3.07229 10.9684 2.61718 10.7408C2.38962 10.6498 2.18483 10.5247 2.00278 10.3654C1.79798 10.2061 1.61594 10.024 1.45665 9.81924C1.13808 9.40965 0.89915 8.92041 0.739862 8.35152C0.557819 7.75988 0.466797 7.09998 0.466797 6.37181V5.07476H2.34411V6.37181C2.34411 7.37304 2.56029 8.13535 2.99264 8.65872C3.12917 8.84076 3.31122 8.98867 3.53877 9.10245C3.60704 9.14796 3.6753 9.18209 3.74356 9.20485C3.99387 9.29587 4.27831 9.36414 4.59689 9.40965C4.71067 9.40965 4.81307 9.40965 4.90409 9.40965H4.97235C5.08613 9.40965 5.18853 9.40965 5.27955 9.40965C5.59812 9.36414 5.89395 9.29587 6.16701 9.20485C6.21252 9.18209 6.26941 9.14796 6.33768 9.10245C6.56523 8.98867 6.75865 8.84076 6.91794 8.65872C7.35029 8.13535 7.56647 7.37304 7.56647 6.37181V5.07476H9.40965V6.37181C9.40965 7.09998 9.31863 7.75988 9.13659 8.35152C8.9773 8.92041 8.73837 9.40965 8.41979 9.81924C8.2605 10.024 8.07846 10.2061 7.87366 10.3654C7.69162 10.5247 7.4982 10.6498 7.2934 10.7408C6.90656 10.9229 6.48559 11.0253 6.03048 11.048C6.16701 13.6421 8.31739 15.6901 10.9115 15.6901H19.9162C22.5444 15.6901 24.6948 13.608 24.7972 10.9798C24.6379 10.957 24.4786 10.9343 24.3193 10.9115C23.887 10.7977 23.4888 10.6271 23.1247 10.3995C22.7606 10.1947 22.442 9.93302 22.169 9.61444C21.8731 9.31862 21.6228 8.96592 21.418 8.55632C21.2132 8.16948 21.0653 7.73713 20.9743 7.25927C20.8605 6.80416 20.8036 6.31492 20.8036 5.79155C20.8036 5.24542 20.8605 4.7448 20.9743 4.28969C21.0653 3.81183 21.2132 3.37948 21.418 2.99264C21.6228 2.6058 21.8731 2.25309 22.169 1.93451C22.442 1.61594 22.7606 1.35426 23.1247 1.14946C23.4888 0.921904 23.887 0.751239 24.3193 0.637462C24.7517 0.523685 25.2182 0.466797 25.7188 0.466797C26.2194 0.466797 26.6859 0.523685 27.1183 0.637462C27.5506 0.751239 27.9488 0.921904 28.3129 1.14946C28.677 1.35426 28.9956 1.61594 29.2686 1.93451C29.5644 2.25309 29.8148 2.6058 30.0196 2.99264C30.2244 3.37948 30.3723 3.81183 30.4633 4.28969ZM28.7908 5.79155C28.7908 5.22266 28.7225 4.71067 28.586 4.25556C28.4267 3.82321 28.2219 3.44774 27.9716 3.12917C27.6985 2.81059 27.3799 2.57167 27.0158 2.41238C26.629 2.23034 26.1967 2.13931 25.7188 2.13931C25.2409 2.13931 24.82 2.23034 24.4559 2.41238C24.069 2.57167 23.7391 2.81059 23.466 3.12917C23.2157 3.44774 23.0109 3.82321 22.8516 4.25556C22.7151 4.71067 22.6468 5.22266 22.6468 5.79155C22.6468 6.33767 22.7151 6.83829 22.8516 7.2934C23.0109 7.74851 23.2157 8.13535 23.466 8.45392C23.7391 8.74974 24.069 8.98868 24.4559 9.17072C24.82 9.33001 25.2409 9.40965 25.7188 9.40965C26.1967 9.40965 26.629 9.33001 27.0158 9.17072C27.3799 8.98868 27.6985 8.74974 27.9716 8.45392C28.2219 8.13535 28.4267 7.74851 28.586 7.2934C28.7225 6.83829 28.7908 6.33767 28.7908 5.79155Z" fill="white"/>
</svg>
