<svg width="31" height="18" fill="none" xmlns="http://www.w3.org/2000/svg"><path d="M.45 1.303v1.878H2.36V1.303H.45zM7.532 1.32v1.844h1.912V1.32H7.532z" fill="#fff"/><path fill-rule="evenodd" clip-rule="evenodd" d="M30.463 4.29c.114.455.17.955.17 1.502 0 .523-.056 1.012-.17 1.467a4.59 4.59 0 01-.443 1.297c-.205.41-.456.763-.751 1.058-.273.319-.592.58-.956.785a4.307 4.307 0 01-1.195.513c-.159.045-.318.08-.478.102-.102 3.618-3.072 6.52-6.724 6.52h-9.005c-3.618 0-6.587-2.868-6.724-6.452h-.034c-.569 0-1.08-.114-1.536-.341a2.122 2.122 0 01-.614-.376 3.103 3.103 0 01-.546-.546A4.21 4.21 0 01.74 8.352a6.716 6.716 0 01-.273-1.98V5.075h1.877v1.297c0 1.001.216 1.763.649 2.287.136.182.318.33.546.443.068.046.136.08.205.103.25.09.534.16.853.205h.683c.318-.046.614-.114.887-.205.046-.023.102-.057.17-.103.228-.113.422-.261.58-.443.433-.524.65-1.286.65-2.287V5.075H9.41v1.297c0 .728-.091 1.388-.273 1.98a4.21 4.21 0 01-.717 1.467c-.16.205-.342.387-.546.546-.182.16-.376.285-.58.376a3.324 3.324 0 01-1.264.307c.137 2.594 2.287 4.642 4.881 4.642h9.005a4.891 4.891 0 004.881-4.71l-.478-.069a4.307 4.307 0 01-1.194-.511 3.526 3.526 0 01-.956-.786 4.029 4.029 0 01-.751-1.058 4.59 4.59 0 01-.444-1.297 6.037 6.037 0 01-.17-1.467c0-.547.056-1.047.17-1.502a4.59 4.59 0 01.444-1.297c.205-.387.455-.74.751-1.058.273-.32.592-.58.956-.786a4.308 4.308 0 011.194-.512c.433-.113.9-.17 1.4-.17.5 0 .967.057 1.4.17.432.114.83.285 1.194.512.364.205.683.467.956.786.295.318.546.67.75 1.058.205.386.353.819.444 1.297zm-1.672 1.502c0-.57-.069-1.081-.205-1.536a4.105 4.105 0 00-.614-1.127 2.647 2.647 0 00-.956-.717 3.008 3.008 0 00-1.297-.273c-.478 0-.899.091-1.263.273a2.58 2.58 0 00-.99.717c-.25.319-.455.694-.614 1.127a5.341 5.341 0 00-.205 1.536c0 .546.068 1.046.205 1.501.159.456.364.842.614 1.16.273.297.603.536.99.718.364.159.785.239 1.263.239.478 0 .91-.08 1.297-.24.364-.181.683-.42.956-.716.25-.319.455-.705.614-1.16.137-.456.205-.956.205-1.502z" fill="#fff"/></svg>