<svg width="32" height="30" viewBox="0 0 32 30" fill="none" xmlns="http://www.w3.org/2000/svg">
<path d="M9.66113 2.18848L12.6611 4.34863L13.498 4.95117L12.8701 5.76855C12.4117 6.36632 11.8287 7.33344 11.1191 8.70605L11.1152 8.71289L11.1123 8.71973C10.4282 9.99404 9.83526 11.4254 9.33887 13.0186L9.33691 13.0273C8.99001 14.1059 8.78548 15.1484 8.71484 16.1562C8.91177 16.1321 9.10936 16.1191 9.30762 16.1191C10.9066 16.1191 12.3521 16.5993 13.6074 17.5586H13.6064C15.0157 18.5821 15.6152 20.2254 15.6152 22.2109C15.6152 23.9974 15.0133 25.5908 13.834 26.9521L13.835 26.9531C12.6483 28.3311 11.0286 28.9914 9.09766 28.9961L9.09863 28.9971C6.49771 29.0538 4.39047 28.2195 2.97461 26.3672L2.96973 26.3613L2.96484 26.3545C1.63784 24.5604 1 22.388 1 19.8965C1 18.1468 1.27268 16.3073 1.80566 14.3828L2.01855 13.6582C2.54359 11.9613 3.26928 10.2339 4.19141 8.47656L4.19629 8.46777L4.62402 7.69434C5.65196 5.89293 6.87841 4.11792 8.30078 2.36914L8.89648 1.6377L9.66113 2.18848ZM25.0459 2.18848L28.0459 4.34863L28.8818 4.95117L28.2549 5.76855C27.7964 6.36632 27.2135 7.33344 26.5039 8.70605L26.4961 8.71973C25.8121 9.99394 25.22 11.4255 24.7236 13.0186L24.7217 13.0273C24.3748 14.1059 24.1703 15.1484 24.0996 16.1562C24.2965 16.1321 24.4942 16.1191 24.6924 16.1191C26.2913 16.1192 27.7369 16.5993 28.9922 17.5586H28.9912C30.4004 18.5821 31 20.2255 31 22.2109C31 23.9974 30.398 25.5908 29.2188 26.9521L29.2197 26.9531C28.0331 28.3311 26.4133 28.9914 24.4824 28.9961L24.4834 28.9971C21.8824 29.0538 19.7752 28.2195 18.3594 26.3672L18.3545 26.3613L18.3496 26.3545C17.0226 24.5604 16.3848 22.388 16.3848 19.8965C16.3848 18.1468 16.6574 16.3073 17.1904 14.3828C17.7248 12.4536 18.5224 10.4847 19.5762 8.47656L19.5801 8.46777L20.0088 7.69434C21.0367 5.89292 22.2632 4.11793 23.6855 2.36914L24.2803 1.6377L25.0459 2.18848Z" fill="#153381" stroke="white" stroke-width="2"/>
</svg>
