<svg width="32" height="30" fill="none" xmlns="http://www.w3.org/2000/svg"><path d="M9.661 2.188l3 2.16.837.603-.628.818c-.458.597-1.041 1.564-1.75 2.937l-.005.007-.003.007c-.684 1.274-1.277 2.705-1.773 4.299l-.002.008a13.23 13.23 0 00-.622 3.13c.197-.025.394-.038.593-.038 1.599 0 3.044.48 4.3 1.44h-.002c1.41 1.023 2.01 2.666 2.01 4.652 0 1.786-.603 3.38-1.782 4.741l.001.001c-1.187 1.378-2.806 2.038-4.737 2.043v.001c-2.6.057-4.708-.777-6.123-2.63l-.005-.006-.005-.006C1.638 24.56 1 22.388 1 19.896c0-1.75.273-3.589.806-5.513l.213-.725c.525-1.697 1.25-3.424 2.172-5.181l.005-.01.428-.773A39.427 39.427 0 018.301 2.37l.595-.731.765.55zm15.385 0l3 2.16.836.603-.627.818c-.459.597-1.041 1.564-1.751 2.937l-.008.014c-.684 1.274-1.276 2.705-1.772 4.299l-.002.008a13.232 13.232 0 00-.622 3.13c.197-.025.394-.038.592-.038 1.6 0 3.045.48 4.3 1.44h0C30.4 18.582 31 20.225 31 22.21c0 1.786-.602 3.38-1.781 4.741v.001c-1.186 1.378-2.806 2.038-4.737 2.043l.001.001c-2.6.057-4.708-.777-6.124-2.63l-.005-.006-.004-.006c-1.327-1.795-1.965-3.967-1.965-6.459 0-1.75.272-3.589.805-5.513.535-1.93 1.332-3.898 2.386-5.906l.004-.01.429-.773a39.43 39.43 0 013.677-5.325l.594-.731.766.55z" fill="#153381" stroke="#fff" stroke-width="2"/></svg>